<svg width="21" height="21" viewBox="0 0 21 21" fill="none" xmlns="http://www.w3.org/2000/svg">
<path fill-rule="evenodd" clip-rule="evenodd" d="M14.0529 14.0527C14.169 13.9364 14.3068 13.8442 14.4586 13.7813C14.6103 13.7184 14.773 13.686 14.9373 13.686C15.1015 13.686 15.2642 13.7184 15.4159 13.7813C15.5677 13.8442 15.7056 13.9364 15.8216 14.0527L20.6342 18.8652C20.8688 19.0996 21.0006 19.4176 21.0007 19.7492C21.0009 20.0808 20.8693 20.3988 20.6349 20.6334C20.4005 20.868 20.0825 20.9998 19.7509 20.9999C19.4193 21 19.1013 20.8684 18.8667 20.634L14.0541 15.8214C13.9379 15.7053 13.8457 15.5675 13.7828 15.4157C13.7199 15.264 13.6875 15.1013 13.6875 14.937C13.6875 14.7728 13.7199 14.6101 13.7828 14.4584C13.8457 14.3066 13.9379 14.1687 14.0541 14.0527H14.0529Z" fill="#1F1F29"/>
<path fill-rule="evenodd" clip-rule="evenodd" d="M9.12515 16.0003C10.028 16.0003 10.922 15.8224 11.7561 15.4769C12.5903 15.1314 13.3482 14.625 13.9866 13.9866C14.625 13.3482 15.1314 12.5903 15.4769 11.7561C15.8224 10.922 16.0003 10.028 16.0003 9.12515C16.0003 8.2223 15.8224 7.32828 15.4769 6.49415C15.1314 5.66002 14.625 4.90212 13.9866 4.2637C13.3482 3.62529 12.5903 3.11887 11.7561 2.77336C10.922 2.42785 10.028 2.25002 9.12515 2.25002C7.30175 2.25002 5.55304 2.97437 4.2637 4.2637C2.97437 5.55304 2.25002 7.30175 2.25002 9.12515C2.25002 10.9485 2.97437 12.6973 4.2637 13.9866C5.55304 15.2759 7.30175 16.0003 9.12515 16.0003ZM17.2503 9.12515C17.2503 11.2801 16.3943 13.3467 14.8705 14.8705C13.3467 16.3943 11.2801 17.2503 9.12515 17.2503C6.97023 17.2503 4.90356 16.3943 3.3798 14.8705C1.85604 13.3467 1 11.2801 1 9.12515C1 6.97023 1.85604 4.90356 3.3798 3.3798C4.90356 1.85604 6.97023 1 9.12515 1C11.2801 1 13.3467 1.85604 14.8705 3.3798C16.3943 4.90356 17.2503 6.97023 17.2503 9.12515Z" fill="#1F1F29" stroke="#1F1F29"/>
</svg>
