<svg width="40" height="40" viewBox="0 0 40 40" fill="none" xmlns="http://www.w3.org/2000/svg">
<g opacity="0.9">
<rect width="40" height="40" rx="20" fill="#F4F4F7"/>
<path d="M11.67 28.3334L12.7966 24.1934C12.0543 22.9208 11.6642 21.4734 11.6666 20.0001C11.6666 15.3976 15.3975 11.6667 20 11.6667C24.6025 11.6667 28.3333 15.3976 28.3333 20.0001C28.3333 24.6026 24.6025 28.3334 20 28.3334C18.5273 28.3358 17.0805 27.9461 15.8083 27.2042L11.67 28.3334ZM16.9925 16.0901C16.8849 16.0968 16.7797 16.1251 16.6833 16.1734C16.5929 16.2246 16.5104 16.2886 16.4383 16.3634C16.3383 16.4576 16.2816 16.5392 16.2208 16.6184C15.9128 17.0192 15.7471 17.5113 15.75 18.0167C15.7516 18.4251 15.8583 18.8226 16.025 19.1942C16.3658 19.9459 16.9266 20.7417 17.6675 21.4792C17.8458 21.6567 18.02 21.8351 18.2075 22.0009C19.127 22.8105 20.2227 23.3943 21.4075 23.7059L21.8816 23.7784C22.0358 23.7867 22.19 23.7751 22.345 23.7676C22.5877 23.7551 22.8246 23.6893 23.0391 23.5751C23.1483 23.5189 23.2548 23.4577 23.3583 23.3917C23.3583 23.3917 23.3941 23.3684 23.4625 23.3167C23.575 23.2334 23.6441 23.1742 23.7375 23.0767C23.8066 23.0051 23.8666 22.9209 23.9125 22.8251C23.9775 22.6892 24.0425 22.4301 24.0691 22.2142C24.0891 22.0492 24.0833 21.9592 24.0808 21.9034C24.0775 21.8142 24.0033 21.7217 23.9225 21.6826L23.4375 21.4651C23.4375 21.4651 22.7125 21.1492 22.27 20.9476C22.2233 20.9272 22.1733 20.9157 22.1225 20.9134C22.0655 20.9076 22.0078 20.914 21.9535 20.9322C21.8992 20.9505 21.8494 20.9802 21.8075 21.0192V21.0176C21.8033 21.0176 21.7475 21.0651 21.145 21.7951C21.1104 21.8415 21.0628 21.8767 21.0081 21.896C20.9535 21.9153 20.8944 21.9178 20.8383 21.9034C20.784 21.8889 20.7308 21.8705 20.6791 21.8484C20.5758 21.8051 20.54 21.7884 20.4691 21.7576L20.465 21.7559C19.9882 21.5478 19.5468 21.2666 19.1566 20.9226C19.0516 20.8309 18.9541 20.7309 18.8541 20.6342C18.5263 20.3203 18.2406 19.9651 18.0041 19.5776L17.955 19.4984C17.9197 19.4452 17.8911 19.3878 17.87 19.3276C17.8383 19.2051 17.9208 19.1067 17.9208 19.1067C17.9208 19.1067 18.1233 18.8851 18.2175 18.7651C18.2959 18.6653 18.369 18.5616 18.4366 18.4542C18.535 18.2959 18.5658 18.1334 18.5141 18.0076C18.2808 17.4376 18.0391 16.8701 17.7908 16.3067C17.7416 16.1951 17.5958 16.1151 17.4633 16.0992C17.4183 16.0942 17.3733 16.0892 17.3283 16.0859C17.2164 16.0804 17.1042 16.0815 16.9925 16.0892V16.0901Z" fill="#1F1F29"/>
</g>
</svg>
